<svg fill="currentColor" viewBox="0 0 24 24" xmlns="http://www.w3.org/2000/svg">
  <path d="M15.15 8.398a5.83 5.83 0 0 0-5.85 5.82v5.88a.9.9 0 0 0 .9.9h2.1a.9.9 0 0 0 .9-.9v-5.88a1.941 1.941 0 0 1 2.15-1.93 2 2 0 0 1 1.75 2v5.81a.9.9 0 0 0 .9.9h2.1a.9.9 0 0 0 .9-.9v-5.88a5.828 5.828 0 0 0-5.85-5.82Z"></path>
  <path d="M6.6 9.297H3.9a.9.9 0 0 0-.9.9v9.9a.9.9 0 0 0 .9.9h2.7a.9.9 0 0 0 .9-.9v-9.9a.9.9 0 0 0-.9-.9Z"></path>
  <path d="M5.25 7.5a2.25 2.25 0 1 0 0-4.5 2.25 2.25 0 0 0 0 4.5Z"></path>
</svg>